<?xml version="1.0" encoding="utf-8"?>
<!-- Generator: Adobe Illustrator 15.1.0, SVG Export Plug-In . SVG Version: 6.00 Build 0)  -->
<!DOCTYPE svg PUBLIC "-//W3C//DTD SVG 1.1//EN" "http://www.w3.org/Graphics/SVG/1.1/DTD/svg11.dtd">
<svg version="1.1" id="Layer_1" xmlns="http://www.w3.org/2000/svg" xmlns:xlink="http://www.w3.org/1999/xlink" x="0px" y="0px"
	 width="540.944px" height="189.248px" viewBox="0 0 540.944 189.248" enable-background="new 0 0 540.944 189.248"
	 xml:space="preserve">
<rect x="216.812" y="33.164" fill="#FFFFFF" stroke="#000000" stroke-miterlimit="10" width="138.194" height="125.694"/>
<g>
	<rect x="235.216" y="13.715" fill="none" width="101.388" height="18.75"/>
	<path d="M236.127,14.259c0.527-0.096,1.295-0.168,2.003-0.168c1.115,0,1.847,0.216,2.338,0.66c0.396,0.36,0.636,0.912,0.636,1.547
		c0,1.055-0.671,1.763-1.511,2.051v0.036c0.612,0.216,0.983,0.792,1.175,1.631c0.264,1.127,0.456,1.907,0.624,2.219h-1.08
		c-0.132-0.24-0.312-0.923-0.528-1.931c-0.24-1.115-0.684-1.535-1.631-1.571h-0.983v3.502h-1.043V14.259z M237.171,17.941h1.067
		c1.115,0,1.823-0.612,1.823-1.535c0-1.043-0.755-1.5-1.859-1.5c-0.504,0-0.852,0.036-1.031,0.084V17.941z"/>
	<path d="M248.784,21.875c-0.468,0.18-1.403,0.444-2.495,0.444c-1.223,0-2.231-0.312-3.022-1.067
		c-0.696-0.672-1.127-1.751-1.127-3.01c0-2.411,1.667-4.174,4.378-4.174c0.935,0,1.679,0.204,2.027,0.372l-0.264,0.852
		c-0.432-0.204-0.971-0.348-1.787-0.348c-1.967,0-3.25,1.223-3.25,3.25c0,2.051,1.223,3.262,3.118,3.262
		c0.684,0,1.151-0.096,1.392-0.216v-2.411h-1.631v-0.839h2.663V21.875z"/>
	<path d="M250.371,14.271c0.456-0.108,1.187-0.18,1.907-0.18c1.043,0,1.715,0.18,2.207,0.588c0.419,0.312,0.684,0.792,0.684,1.427
		c0,0.792-0.528,1.475-1.367,1.775v0.036c0.768,0.18,1.667,0.815,1.667,2.015c0,0.696-0.276,1.235-0.696,1.619
		c-0.552,0.516-1.463,0.755-2.782,0.755c-0.72,0-1.271-0.048-1.619-0.096V14.271z M251.415,17.582h0.947
		c1.091,0,1.739-0.588,1.739-1.367c0-0.936-0.708-1.319-1.763-1.319c-0.48,0-0.755,0.036-0.923,0.072V17.582z M251.415,21.443
		c0.216,0.036,0.503,0.048,0.875,0.048c1.079,0,2.075-0.396,2.075-1.571c0-1.091-0.947-1.559-2.087-1.559h-0.863V21.443z"/>
	<path d="M258.182,19.692l-0.839,2.542h-1.08l2.758-8.083h1.248l2.758,8.083h-1.115l-0.864-2.542H258.182z M260.845,18.876
		l-0.804-2.327c-0.18-0.527-0.3-1.007-0.419-1.475h-0.024c-0.12,0.468-0.24,0.972-0.408,1.463l-0.792,2.338H260.845z"/>
	<path d="M266.728,13.72h1.043v3.646h0.024c0.372-0.648,1.043-1.056,1.979-1.056c1.451,0,2.458,1.199,2.458,2.95
		c0,2.075-1.319,3.106-2.614,3.106c-0.84,0-1.511-0.324-1.955-1.079h-0.024l-0.06,0.947h-0.899c0.024-0.396,0.048-0.983,0.048-1.499
		V13.72z M267.771,19.908c0,0.132,0.012,0.264,0.048,0.384c0.192,0.731,0.815,1.235,1.583,1.235c1.116,0,1.763-0.899,1.763-2.231
		c0-1.163-0.6-2.159-1.739-2.159c-0.708,0-1.379,0.504-1.595,1.295c-0.036,0.132-0.06,0.276-0.06,0.443V19.908z"/>
	<path d="M278.412,20.64c0,0.612,0.012,1.14,0.048,1.595h-0.936l-0.06-0.947h-0.024c-0.264,0.468-0.887,1.079-1.919,1.079
		c-0.911,0-2.003-0.516-2.003-2.542V16.43h1.056v3.202c0,1.104,0.348,1.859,1.295,1.859c0.708,0,1.199-0.492,1.391-0.971
		c0.06-0.144,0.096-0.336,0.096-0.54v-3.55h1.056V20.64z"/>
	<path d="M283.765,22.235v-5.001h-2.447v5.001h-1.043v-5.001h-0.804V16.43h0.804v-0.18c0-0.815,0.192-1.511,0.647-1.979
		c0.336-0.335,0.816-0.54,1.463-0.54c0.336,0,0.648,0.108,0.828,0.204l-0.216,0.792c-0.156-0.084-0.384-0.156-0.624-0.156
		c-0.828,0-1.056,0.708-1.056,1.619v0.24h2.447v-0.276c0-0.815,0.18-1.559,0.671-2.027c0.396-0.384,0.924-0.54,1.403-0.54
		c0.384,0,0.708,0.084,0.899,0.168l-0.132,0.816c-0.168-0.072-0.372-0.132-0.684-0.132c-0.888,0-1.115,0.78-1.115,1.679v0.312h1.391
		v0.803h-1.391v5.001H283.765z"/>
	<path d="M287.595,19.524c0.024,1.427,0.923,2.015,1.991,2.015c0.755,0,1.223-0.132,1.607-0.3l0.192,0.756
		c-0.372,0.168-1.019,0.372-1.943,0.372c-1.787,0-2.854-1.188-2.854-2.938s1.032-3.118,2.723-3.118c1.907,0,2.399,1.655,2.399,2.723
		c0,0.216-0.012,0.372-0.036,0.492H287.595z M290.689,18.769c0.012-0.66-0.276-1.703-1.463-1.703c-1.08,0-1.535,0.971-1.619,1.703
		H290.689z"/>
	<path d="M293.019,18.241c0-0.684-0.012-1.271-0.048-1.811h0.923l0.048,1.151h0.036c0.264-0.78,0.912-1.271,1.619-1.271
		c0.108,0,0.192,0.012,0.288,0.024v0.996c-0.108-0.024-0.216-0.024-0.36-0.024c-0.744,0-1.271,0.552-1.416,1.343
		c-0.024,0.144-0.036,0.324-0.036,0.492v3.094h-1.056V18.241z"/>
	<path d="M299.594,22.235v-5.001h-0.804V16.43h0.804v-0.276c0-0.815,0.192-1.559,0.672-2.027c0.396-0.384,0.923-0.54,1.415-0.54
		c0.384,0,0.696,0.084,0.899,0.168l-0.144,0.816c-0.156-0.072-0.359-0.132-0.671-0.132c-0.899,0-1.127,0.78-1.127,1.679v0.312h1.403
		v0.803h-1.403v5.001H299.594z"/>
	<path d="M308.087,19.285c0,2.146-1.499,3.082-2.89,3.082c-1.559,0-2.783-1.151-2.783-2.986c0-1.931,1.284-3.07,2.878-3.07
		C306.96,16.31,308.087,17.521,308.087,19.285z M303.494,19.344c0,1.271,0.72,2.231,1.751,2.231c1.007,0,1.763-0.947,1.763-2.255
		c0-0.983-0.492-2.219-1.739-2.219C304.034,17.102,303.494,18.253,303.494,19.344z"/>
	<path d="M309.422,18.241c0-0.684-0.012-1.271-0.048-1.811h0.923l0.048,1.151h0.036c0.264-0.78,0.912-1.271,1.619-1.271
		c0.108,0,0.192,0.012,0.288,0.024v0.996c-0.108-0.024-0.216-0.024-0.359-0.024c-0.744,0-1.271,0.552-1.416,1.343
		c-0.024,0.144-0.036,0.324-0.036,0.492v3.094h-1.056V18.241z"/>
	<path d="M315.806,18.721l5.565-2.866v0.828l-4.689,2.351v0.024l4.689,2.351v0.828l-5.565-2.866V18.721z"/>
	<path d="M328.007,21.383c0,1.343-0.276,2.147-0.828,2.663c-0.576,0.516-1.391,0.696-2.123,0.696c-0.696,0-1.463-0.168-1.931-0.48
		l0.264-0.815c0.384,0.252,0.984,0.468,1.703,0.468c1.08,0,1.871-0.564,1.871-2.039v-0.636h-0.024
		c-0.312,0.54-0.948,0.972-1.847,0.972c-1.439,0-2.471-1.223-2.471-2.831c0-1.967,1.284-3.07,2.627-3.07
		c1.007,0,1.547,0.516,1.811,0.996h0.024l0.036-0.875h0.936c-0.036,0.408-0.048,0.887-0.048,1.583V21.383z M326.952,18.721
		c0-0.18-0.012-0.336-0.06-0.468c-0.192-0.624-0.696-1.127-1.476-1.127c-1.007,0-1.727,0.852-1.727,2.195
		c0,1.14,0.588,2.087,1.715,2.087c0.66,0,1.247-0.408,1.463-1.079c0.06-0.18,0.084-0.384,0.084-0.564V18.721z"/>
	<path d="M335.231,19.38l-5.565,2.854v-0.828l4.726-2.351v-0.024l-4.726-2.351v-0.828l5.565,2.842V19.38z"/>
</g>
<circle fill="#FF0000" stroke="#000000" stroke-miterlimit="10" cx="255.562" cy="120.363" r="28.733"/>
<rect x="379.34" y="31.942" fill="#FFFFFF" stroke="#000000" stroke-miterlimit="10" width="138.195" height="125.694"/>
<g>
	<rect x="392.188" y="13.715" fill="none" width="112.5" height="18.75"/>
	<path d="M392.919,21.167c0.324,0.192,0.875,0.408,1.403,0.408c0.756,0,1.115-0.372,1.115-0.863c0-0.504-0.3-0.768-1.067-1.056
		c-1.055-0.384-1.547-0.947-1.547-1.643c0-0.936,0.768-1.703,2.003-1.703c0.587,0,1.103,0.156,1.415,0.36l-0.252,0.768
		c-0.228-0.144-0.647-0.348-1.187-0.348c-0.624,0-0.959,0.36-0.959,0.792c0,0.479,0.335,0.695,1.091,0.995
		c0.995,0.372,1.523,0.876,1.523,1.739c0,1.031-0.803,1.751-2.159,1.751c-0.636,0-1.223-0.168-1.631-0.408L392.919,21.167z"/>
	<path d="M397.815,13.72h1.056v3.634h0.024c0.168-0.3,0.432-0.576,0.755-0.755c0.312-0.18,0.684-0.288,1.08-0.288
		c0.779,0,2.026,0.48,2.026,2.471v3.454h-1.055v-3.334c0-0.936-0.348-1.715-1.344-1.715c-0.684,0-1.211,0.48-1.415,1.043
		c-0.06,0.156-0.072,0.312-0.072,0.504v3.502h-1.056V13.72z"/>
	<path d="M408.553,20.844c0,0.503,0.023,0.995,0.084,1.391h-0.947l-0.084-0.731h-0.037c-0.323,0.456-0.947,0.863-1.774,0.863
		c-1.175,0-1.774-0.828-1.774-1.667c0-1.403,1.246-2.171,3.489-2.159v-0.12c0-0.468-0.132-1.343-1.319-1.331
		c-0.551,0-1.115,0.156-1.523,0.432l-0.239-0.708c0.479-0.3,1.187-0.504,1.919-0.504c1.775,0,2.207,1.211,2.207,2.363V20.844z
		 M407.533,19.272c-1.152-0.024-2.459,0.18-2.459,1.307c0,0.696,0.456,1.008,0.983,1.008c0.768,0,1.259-0.48,1.427-0.972
		c0.037-0.12,0.049-0.24,0.049-0.336V19.272z"/>
	<path d="M410.259,18.325c0-0.744-0.024-1.343-0.048-1.895h0.936l0.061,0.995h0.023c0.42-0.708,1.115-1.115,2.062-1.115
		c1.416,0,2.471,1.188,2.471,2.938c0,2.087-1.283,3.118-2.65,3.118c-0.768,0-1.439-0.336-1.787-0.912h-0.023v3.154h-1.044V18.325z
		 M411.303,19.872c0,0.156,0.012,0.3,0.047,0.432c0.192,0.732,0.828,1.235,1.584,1.235c1.115,0,1.763-0.911,1.763-2.243
		c0-1.151-0.612-2.146-1.728-2.146c-0.719,0-1.402,0.503-1.595,1.295c-0.036,0.132-0.071,0.288-0.071,0.42V19.872z"/>
	<path d="M417.674,19.524c0.024,1.427,0.924,2.015,1.991,2.015c0.755,0,1.224-0.132,1.606-0.3l0.192,0.756
		c-0.372,0.168-1.019,0.372-1.942,0.372c-1.787,0-2.855-1.188-2.855-2.938s1.032-3.118,2.723-3.118c1.908,0,2.399,1.655,2.399,2.723
		c0,0.216-0.013,0.372-0.036,0.492H417.674z M420.769,18.769c0.012-0.66-0.276-1.703-1.464-1.703c-1.078,0-1.535,0.971-1.619,1.703
		H420.769z"/>
	<path d="M425.643,13.72h1.043v3.646h0.023c0.373-0.648,1.044-1.056,1.979-1.056c1.451,0,2.458,1.199,2.458,2.95
		c0,2.075-1.318,3.106-2.613,3.106c-0.84,0-1.512-0.324-1.955-1.079h-0.024l-0.06,0.947h-0.9c0.024-0.396,0.049-0.983,0.049-1.499
		V13.72z M426.686,19.908c0,0.132,0.012,0.264,0.048,0.384c0.192,0.731,0.815,1.235,1.583,1.235c1.115,0,1.764-0.899,1.764-2.231
		c0-1.163-0.6-2.159-1.739-2.159c-0.708,0-1.38,0.504-1.595,1.295c-0.037,0.132-0.061,0.276-0.061,0.443V19.908z"/>
	<path d="M437.327,20.64c0,0.612,0.012,1.14,0.048,1.595h-0.936l-0.061-0.947h-0.023c-0.264,0.468-0.887,1.079-1.919,1.079
		c-0.911,0-2.003-0.516-2.003-2.542V16.43h1.056v3.202c0,1.104,0.348,1.859,1.296,1.859c0.707,0,1.199-0.492,1.391-0.971
		c0.061-0.144,0.096-0.336,0.096-0.54v-3.55h1.056V20.64z"/>
	<path d="M442.68,22.235v-5.001h-2.447v5.001h-1.043v-5.001h-0.804V16.43h0.804v-0.18c0-0.815,0.191-1.511,0.648-1.979
		c0.335-0.335,0.814-0.54,1.463-0.54c0.336,0,0.646,0.108,0.827,0.204l-0.216,0.792c-0.156-0.084-0.384-0.156-0.623-0.156
		c-0.828,0-1.057,0.708-1.057,1.619v0.24h2.447v-0.276c0-0.815,0.18-1.559,0.672-2.027c0.396-0.384,0.924-0.54,1.402-0.54
		c0.385,0,0.708,0.084,0.9,0.168l-0.133,0.816c-0.168-0.072-0.371-0.132-0.684-0.132c-0.887,0-1.115,0.78-1.115,1.679v0.312h1.392
		v0.803h-1.392v5.001H442.68z"/>
	<path d="M446.51,19.524c0.023,1.427,0.924,2.015,1.99,2.015c0.756,0,1.224-0.132,1.607-0.3l0.191,0.756
		c-0.371,0.168-1.019,0.372-1.942,0.372c-1.787,0-2.854-1.188-2.854-2.938s1.031-3.118,2.723-3.118c1.906,0,2.398,1.655,2.398,2.723
		c0,0.216-0.012,0.372-0.035,0.492H446.51z M449.604,18.769c0.012-0.66-0.275-1.703-1.463-1.703c-1.08,0-1.535,0.971-1.619,1.703
		H449.604z"/>
	<path d="M451.934,18.241c0-0.684-0.012-1.271-0.048-1.811h0.923l0.049,1.151h0.035c0.264-0.78,0.912-1.271,1.619-1.271
		c0.108,0,0.192,0.012,0.289,0.024v0.996c-0.109-0.024-0.217-0.024-0.36-0.024c-0.743,0-1.271,0.552-1.415,1.343
		c-0.024,0.144-0.036,0.324-0.036,0.492v3.094h-1.056V18.241z"/>
	<path d="M458.51,22.235v-5.001h-0.805V16.43h0.805v-0.276c0-0.815,0.191-1.559,0.672-2.027c0.395-0.384,0.923-0.54,1.414-0.54
		c0.385,0,0.696,0.084,0.9,0.168l-0.145,0.816c-0.156-0.072-0.359-0.132-0.672-0.132c-0.898,0-1.127,0.78-1.127,1.679v0.312h1.403
		v0.803h-1.403v5.001H458.51z"/>
	<path d="M467.002,19.285c0,2.146-1.498,3.082-2.89,3.082c-1.56,0-2.782-1.151-2.782-2.986c0-1.931,1.283-3.07,2.878-3.07
		C465.875,16.31,467.002,17.521,467.002,19.285z M462.409,19.344c0,1.271,0.72,2.231,1.751,2.231c1.008,0,1.764-0.947,1.764-2.255
		c0-0.983-0.492-2.219-1.74-2.219C462.949,17.102,462.409,18.253,462.409,19.344z"/>
	<path d="M468.338,18.241c0-0.684-0.012-1.271-0.049-1.811h0.924l0.048,1.151h0.036c0.264-0.78,0.912-1.271,1.619-1.271
		c0.107,0,0.191,0.012,0.287,0.024v0.996c-0.107-0.024-0.215-0.024-0.359-0.024c-0.743,0-1.271,0.552-1.415,1.343
		c-0.024,0.144-0.036,0.324-0.036,0.492v3.094h-1.055V18.241z"/>
	<path d="M474.721,18.721l5.565-2.866v0.828l-4.689,2.351v0.024l4.689,2.351v0.828l-5.565-2.866V18.721z"/>
	<path d="M486.922,21.383c0,1.343-0.275,2.147-0.827,2.663c-0.575,0.516-1.392,0.696-2.122,0.696c-0.696,0-1.464-0.168-1.932-0.48
		l0.264-0.815c0.384,0.252,0.984,0.468,1.703,0.468c1.08,0,1.871-0.564,1.871-2.039v-0.636h-0.023
		c-0.312,0.54-0.948,0.972-1.848,0.972c-1.439,0-2.471-1.223-2.471-2.831c0-1.967,1.283-3.07,2.627-3.07
		c1.008,0,1.547,0.516,1.811,0.996h0.024l0.036-0.875h0.936c-0.037,0.408-0.049,0.887-0.049,1.583V21.383z M485.867,18.721
		c0-0.18-0.012-0.336-0.061-0.468c-0.191-0.624-0.695-1.127-1.475-1.127c-1.008,0-1.728,0.852-1.728,2.195
		c0,1.14,0.588,2.087,1.716,2.087c0.659,0,1.246-0.408,1.463-1.079c0.06-0.18,0.084-0.384,0.084-0.564V18.721z"/>
	<path d="M494.146,19.38l-5.565,2.854v-0.828l4.726-2.351v-0.024l-4.726-2.351v-0.828l5.565,2.842V19.38z"/>
</g>
<circle stroke="#000000" stroke-miterlimit="10" cx="417.312" cy="120.363" r="28.733"/>
<circle stroke="#000000" stroke-miterlimit="10" cx="480.174" cy="120.363" r="28.732"/>
<rect x="14.235" y="33.164" fill="#FFFFFF" stroke="#000000" stroke-miterlimit="10" width="138.194" height="125.694"/>
<rect x="23.456" y="41.025" fill="#0000FF" width="119.753" height="111.071"/>
<g>
	<rect x="21.527" y="13.715" fill="none" width="123.61" height="18.75"/>
	<path d="M22.438,14.259c0.528-0.096,1.295-0.168,2.003-0.168c1.115,0,1.847,0.216,2.338,0.66c0.396,0.36,0.636,0.912,0.636,1.547
		c0,1.055-0.671,1.763-1.511,2.051v0.036c0.612,0.216,0.983,0.792,1.175,1.631c0.264,1.127,0.456,1.907,0.624,2.219h-1.08
		c-0.132-0.24-0.312-0.923-0.528-1.931c-0.24-1.115-0.684-1.535-1.631-1.571h-0.983v3.502h-1.043V14.259z M23.482,17.941h1.067
		c1.115,0,1.823-0.612,1.823-1.535c0-1.043-0.755-1.5-1.859-1.5c-0.504,0-0.852,0.036-1.031,0.084V17.941z"/>
	<path d="M35.095,21.875c-0.468,0.18-1.403,0.444-2.495,0.444c-1.223,0-2.231-0.312-3.022-1.067
		c-0.696-0.672-1.127-1.751-1.127-3.01c0-2.411,1.667-4.174,4.378-4.174c0.935,0,1.679,0.204,2.027,0.372l-0.264,0.852
		c-0.432-0.204-0.971-0.348-1.787-0.348c-1.967,0-3.25,1.223-3.25,3.25c0,2.051,1.223,3.262,3.118,3.262
		c0.684,0,1.151-0.096,1.392-0.216v-2.411h-1.631v-0.839h2.663V21.875z"/>
	<path d="M36.683,14.271c0.456-0.108,1.187-0.18,1.907-0.18c1.043,0,1.715,0.18,2.207,0.588c0.419,0.312,0.684,0.792,0.684,1.427
		c0,0.792-0.528,1.475-1.367,1.775v0.036c0.768,0.18,1.667,0.815,1.667,2.015c0,0.696-0.276,1.235-0.696,1.619
		c-0.552,0.516-1.463,0.755-2.782,0.755c-0.72,0-1.271-0.048-1.619-0.096V14.271z M37.726,17.582h0.947
		c1.091,0,1.739-0.588,1.739-1.367c0-0.936-0.708-1.319-1.763-1.319c-0.48,0-0.755,0.036-0.923,0.072V17.582z M37.726,21.443
		c0.216,0.036,0.503,0.048,0.875,0.048c1.079,0,2.075-0.396,2.075-1.571c0-1.091-0.947-1.559-2.087-1.559h-0.863V21.443z"/>
	<path d="M44.494,19.692l-0.839,2.542h-1.08l2.758-8.083h1.248l2.758,8.083h-1.115l-0.864-2.542H44.494z M47.156,18.876
		l-0.804-2.327c-0.18-0.527-0.3-1.007-0.419-1.475h-0.024c-0.12,0.468-0.24,0.972-0.408,1.463l-0.792,2.338H47.156z"/>
	<path d="M53.038,13.72h1.043v3.646h0.024c0.372-0.648,1.043-1.056,1.979-1.056c1.451,0,2.458,1.199,2.458,2.95
		c0,2.075-1.319,3.106-2.614,3.106c-0.84,0-1.511-0.324-1.955-1.079H53.95l-0.06,0.947H52.99c0.024-0.396,0.048-0.983,0.048-1.499
		V13.72z M54.082,19.908c0,0.132,0.012,0.264,0.048,0.384c0.192,0.731,0.815,1.235,1.583,1.235c1.116,0,1.763-0.899,1.763-2.231
		c0-1.163-0.6-2.159-1.739-2.159c-0.708,0-1.379,0.504-1.595,1.295c-0.036,0.132-0.06,0.276-0.06,0.443V19.908z"/>
	<path d="M64.723,20.64c0,0.612,0.012,1.14,0.048,1.595h-0.936l-0.06-0.947h-0.024c-0.264,0.468-0.887,1.079-1.919,1.079
		c-0.911,0-2.003-0.516-2.003-2.542V16.43h1.056v3.202c0,1.104,0.348,1.859,1.295,1.859c0.708,0,1.199-0.492,1.391-0.971
		c0.06-0.144,0.096-0.336,0.096-0.54v-3.55h1.056V20.64z"/>
	<path d="M70.076,22.235v-5.001h-2.447v5.001h-1.043v-5.001h-0.804V16.43h0.804v-0.18c0-0.815,0.192-1.511,0.647-1.979
		c0.336-0.335,0.816-0.54,1.463-0.54c0.336,0,0.648,0.108,0.828,0.204l-0.216,0.792c-0.156-0.084-0.384-0.156-0.624-0.156
		c-0.828,0-1.056,0.708-1.056,1.619v0.24h2.447v-0.276c0-0.815,0.18-1.559,0.671-2.027c0.396-0.384,0.924-0.54,1.403-0.54
		c0.384,0,0.708,0.084,0.899,0.168l-0.132,0.816c-0.168-0.072-0.372-0.132-0.684-0.132c-0.888,0-1.115,0.78-1.115,1.679v0.312h1.391
		v0.803h-1.391v5.001H70.076z"/>
	<path d="M73.905,19.524c0.024,1.427,0.923,2.015,1.991,2.015c0.755,0,1.223-0.132,1.607-0.3l0.192,0.756
		c-0.372,0.168-1.019,0.372-1.943,0.372c-1.787,0-2.854-1.188-2.854-2.938s1.032-3.118,2.723-3.118c1.907,0,2.399,1.655,2.399,2.723
		c0,0.216-0.012,0.372-0.036,0.492H73.905z M77,18.769c0.012-0.66-0.276-1.703-1.463-1.703c-1.08,0-1.535,0.971-1.619,1.703H77z"/>
	<path d="M79.329,18.241c0-0.684-0.012-1.271-0.048-1.811h0.923l0.048,1.151h0.036c0.264-0.78,0.912-1.271,1.619-1.271
		c0.108,0,0.192,0.012,0.288,0.024v0.996c-0.108-0.024-0.216-0.024-0.36-0.024c-0.744,0-1.271,0.552-1.416,1.343
		c-0.024,0.144-0.036,0.324-0.036,0.492v3.094h-1.056V18.241z"/>
	<path d="M85.905,22.235v-5.001h-0.804V16.43h0.804v-0.276c0-0.815,0.192-1.559,0.672-2.027c0.396-0.384,0.923-0.54,1.415-0.54
		c0.384,0,0.696,0.084,0.899,0.168l-0.144,0.816c-0.156-0.072-0.359-0.132-0.671-0.132c-0.899,0-1.127,0.78-1.127,1.679v0.312h1.403
		v0.803h-1.403v5.001H85.905z"/>
	<path d="M94.398,19.285c0,2.146-1.499,3.082-2.89,3.082c-1.559,0-2.783-1.151-2.783-2.986c0-1.931,1.284-3.07,2.878-3.07
		C93.271,16.31,94.398,17.521,94.398,19.285z M89.805,19.344c0,1.271,0.72,2.231,1.751,2.231c1.007,0,1.763-0.947,1.763-2.255
		c0-0.983-0.492-2.219-1.739-2.219C90.344,17.102,89.805,18.253,89.805,19.344z"/>
	<path d="M95.733,18.241c0-0.684-0.012-1.271-0.048-1.811h0.923l0.048,1.151h0.036c0.264-0.78,0.912-1.271,1.619-1.271
		c0.108,0,0.192,0.012,0.288,0.024v0.996c-0.108-0.024-0.216-0.024-0.359-0.024c-0.744,0-1.271,0.552-1.416,1.343
		c-0.024,0.144-0.036,0.324-0.036,0.492v3.094h-1.056V18.241z"/>
	<path d="M102.117,18.721l5.565-2.866v0.828l-4.689,2.351v0.024l4.689,2.351v0.828l-5.565-2.866V18.721z"/>
	<path d="M109.353,18.241c0-0.684-0.012-1.271-0.048-1.811h0.923l0.048,1.151h0.036c0.264-0.78,0.912-1.271,1.619-1.271
		c0.108,0,0.192,0.012,0.288,0.024v0.996c-0.108-0.024-0.216-0.024-0.36-0.024c-0.744,0-1.271,0.552-1.416,1.343
		c-0.024,0.144-0.036,0.324-0.036,0.492v3.094h-1.056V18.241z"/>
	<path d="M113.745,19.524c0.024,1.427,0.923,2.015,1.991,2.015c0.755,0,1.223-0.132,1.607-0.3l0.192,0.756
		c-0.372,0.168-1.019,0.372-1.943,0.372c-1.787,0-2.854-1.188-2.854-2.938s1.032-3.118,2.723-3.118c1.907,0,2.399,1.655,2.399,2.723
		c0,0.216-0.012,0.372-0.036,0.492H113.745z M116.839,18.769c0.012-0.66-0.276-1.703-1.463-1.703c-1.079,0-1.535,0.971-1.619,1.703
		H116.839z"/>
	<path d="M123.306,22.031c-0.276,0.132-0.888,0.336-1.667,0.336c-1.751,0-2.891-1.188-2.891-2.962c0-1.787,1.224-3.094,3.119-3.094
		c0.624,0,1.175,0.156,1.463,0.312l-0.24,0.803c-0.252-0.132-0.647-0.275-1.223-0.275c-1.332,0-2.051,0.995-2.051,2.194
		c0,1.343,0.864,2.171,2.015,2.171c0.6,0,0.996-0.144,1.295-0.276L123.306,22.031z"/>
	<path d="M125.972,15.039v1.392h1.511v0.803h-1.511v3.13c0,0.72,0.204,1.127,0.792,1.127c0.288,0,0.456-0.024,0.611-0.072
		l0.048,0.803c-0.204,0.072-0.528,0.144-0.936,0.144c-0.492,0-0.888-0.168-1.14-0.444c-0.288-0.324-0.408-0.839-0.408-1.523v-3.167
		h-0.899V16.43h0.899v-1.08L125.972,15.039z"/>
	<path d="M134.153,19.38l-5.565,2.854v-0.828l4.726-2.351v-0.024l-4.726-2.351v-0.828l5.565,2.842V19.38z"/>
</g>
<rect x="36.083" y="111.942" fill="none" stroke="#00FC00" stroke-width="2" stroke-miterlimit="10" width="19.444" height="18.75"/>
<rect x="243.841" y="111.942" fill="none" stroke="#00FF00" stroke-width="2" stroke-miterlimit="10" width="19.444" height="18.75"/>
<rect x="405.806" y="110.942" fill="none" stroke="#00FF00" stroke-width="2" stroke-miterlimit="10" width="19.444" height="18.75"/>
<rect x="100.778" y="111.942" fill="none" stroke="#000000" stroke-miterlimit="10" width="19.444" height="18.75"/>
<rect x="308.535" y="111.942" fill="none" stroke="#000000" stroke-miterlimit="10" width="19.444" height="18.75"/>
<rect x="470.5" y="110.942" fill="none" stroke="#FFFFFF" stroke-miterlimit="10" width="19.444" height="18.75"/>
</svg>
