<?xml version="1.0" encoding="utf-8"?>
<!-- Generator: Adobe Illustrator 15.1.0, SVG Export Plug-In . SVG Version: 6.00 Build 0)  -->
<!DOCTYPE svg PUBLIC "-//W3C//DTD SVG 1.1//EN" "http://www.w3.org/Graphics/SVG/1.1/DTD/svg11.dtd">
<svg version="1.1" id="Layer_1" xmlns="http://www.w3.org/2000/svg" xmlns:xlink="http://www.w3.org/1999/xlink" x="0px" y="0px"
	 width="597.194px" height="203.139px" viewBox="0 0 597.194 203.139" enable-background="new 0 0 597.194 203.139"
	 xml:space="preserve">
<g>
	<path fill="#FFFF00" d="M62.458,15.389c-13.287,0-25.312,5.384-34.02,14.091c-8.707,8.708-14.091,20.732-14.091,34.02
		c0,13.288,5.384,25.312,14.091,34.02c3.836,3.836,8.316,7.026,13.264,9.396c2.237-21.271,18.053-38.498,38.621-42.851
		c-0.002-0.188-0.003-0.377-0.003-0.565c0-13.821,5.71-26.31,14.899-35.234C86.628,20.275,75.116,15.39,62.458,15.389"/>
	<path d="M62.458,14.389c-27.123,0-49.11,21.988-49.111,49.111c0,19.667,11.559,36.634,28.255,44.476
		c0.029-0.355,0.062-0.707,0.1-1.059c-4.948-2.37-9.427-5.561-13.264-9.396c-8.707-8.708-14.091-20.732-14.091-34.02
		c0-13.287,5.384-25.312,14.091-34.02c8.708-8.707,20.733-14.091,34.02-14.091c12.658,0,24.17,4.886,32.761,12.877
		c0.24-0.233,0.481-0.462,0.726-0.69C87.172,19.396,75.4,14.389,62.458,14.389"/>
	<path fill="#FF03FF" d="M129.431,15.389c-12.658,0-24.169,4.886-32.76,12.877C105.86,37.19,111.57,49.679,111.57,63.5l0,0l0,0
		c0,1.392-0.058,2.773-0.172,4.136c16.247,7.631,27.628,23.901,28.23,42.893c9.193-1.984,17.408-6.595,23.822-13.009
		c8.707-8.708,14.091-20.733,14.091-34.02h0.5l0,0h-0.5c0-13.287-5.384-25.312-14.091-34.02
		C154.743,20.773,142.718,15.39,129.431,15.389"/>
	<path fill="#FF0300" d="M95.945,28.956c-0.179,0.173-0.357,0.349-0.534,0.525C86.704,38.188,81.32,50.213,81.32,63.5
		c0,0.122,0,0.244,0.001,0.365C84.308,63.297,87.39,63,90.542,63c7.079,0,13.809,1.498,19.888,4.194
		c0.092-1.22,0.14-2.451,0.14-3.694h0.5l0,0h-0.5c0-13.287-5.384-25.312-14.091-34.02C96.302,29.304,96.124,29.129,95.945,28.956"/>
	<path d="M111.57,63.5h-0.5h-0.5c0,1.243-0.047,2.475-0.14,3.694c0.324,0.144,0.647,0.292,0.968,0.442
		C111.512,66.273,111.57,64.892,111.57,63.5 M111.57,63.5L111.57,63.5L111.57,63.5 M96.67,28.266
		c-0.244,0.228-0.486,0.457-0.726,0.689c0.179,0.173,0.357,0.349,0.534,0.525c8.707,8.708,14.091,20.732,14.091,34.02h0.5h0.5l0,0
		C111.57,49.679,105.86,37.19,96.67,28.266"/>
	<path d="M178.542,63.5h-0.5h-0.5c0,13.287-5.384,25.312-14.091,34.02c-6.415,6.414-14.629,11.025-23.822,13.009
		c0.011,0.338,0.018,0.678,0.021,1.018C161.868,106.844,178.542,87.119,178.542,63.5 M129.431,14.389
		c-12.941,0-24.713,5.006-33.486,13.187c0.245,0.228,0.486,0.458,0.726,0.69c8.591-7.991,20.103-12.876,32.76-12.877
		c13.287,0,25.312,5.384,34.02,14.091c8.707,8.708,14.091,20.732,14.091,34.02h0.5h0.5l0,0
		C178.542,36.377,156.555,14.39,129.431,14.389"/>
	<path d="M95.219,28.266C86.03,37.19,80.32,49.679,80.32,63.5c0,0.188,0.001,0.377,0.003,0.565c0.332-0.07,0.664-0.137,0.998-0.201
		c-0.001-0.121-0.001-0.243-0.001-0.365c0-13.287,5.384-25.312,14.091-34.02c0.177-0.176,0.354-0.352,0.534-0.525
		C95.705,28.723,95.463,28.494,95.219,28.266"/>
	<path d="M95.945,27.576c-0.245,0.228-0.486,0.458-0.726,0.69c0.244,0.228,0.486,0.457,0.726,0.689
		c0.24-0.232,0.481-0.462,0.726-0.689C96.431,28.033,96.189,27.804,95.945,27.576"/>
	<path fill="#00FFFF" d="M95.945,99.425c-8.772,8.18-20.545,13.186-33.486,13.186c-7.079,0-13.808-1.498-19.888-4.194
		c-0.093,1.22-0.14,2.451-0.14,3.694c0,13.288,5.384,25.312,14.091,34.02c8.708,8.707,20.732,14.091,34.02,14.091
		c13.288,0,25.312-5.384,34.02-14.091c8.707-8.708,14.091-20.732,14.091-34.02h0.5l0,0h-0.5c0-0.122,0-0.243-0.001-0.364
		c-2.987,0.567-6.069,0.864-9.221,0.864C116.49,112.611,104.717,107.605,95.945,99.425"/>
	<path fill="#00FF00" d="M80.345,65.083c-9.193,1.984-17.407,6.595-23.822,13.009c-7.657,7.658-12.744,17.881-13.86,29.271
		c6.037,2.729,12.739,4.248,19.796,4.248c12.658,0,24.17-4.886,32.761-12.877C86.382,90.152,80.763,78.274,80.345,65.083"/>
	<path d="M95.219,98.734c-8.59,7.991-20.103,12.877-32.761,12.877c-7.057,0-13.759-1.52-19.796-4.248
		c-0.035,0.35-0.065,0.702-0.092,1.054c6.08,2.696,12.809,4.194,19.888,4.194c12.941,0,24.714-5.006,33.486-13.186
		C95.7,99.197,95.459,98.968,95.219,98.734"/>
	<path fill="#0003FF" d="M111.298,68.695c-1.234,11.74-6.605,22.248-14.628,30.039c8.591,7.991,20.103,12.877,32.76,12.877
		c3.147,0,6.225-0.302,9.203-0.879c-0.359-12.739-5.667-24.235-14.072-32.641C120.726,74.256,116.247,71.065,111.298,68.695"/>
	<path fill="#000300" d="M90.542,64c-3.147,0-6.225,0.302-9.203,0.879c0.359,12.739,5.667,24.234,14.072,32.64
		c0.177,0.176,0.354,0.352,0.534,0.525c0.179-0.174,0.357-0.349,0.534-0.525c7.657-7.658,12.744-17.88,13.86-29.271
		C104.301,65.52,97.599,64,90.542,64"/>
	<path d="M110.338,68.249c-1.116,11.391-6.203,21.614-13.86,29.271c-0.176,0.176-0.354,0.352-0.534,0.525
		c0.24,0.232,0.481,0.462,0.726,0.689c8.023-7.791,13.394-18.299,14.628-30.039C110.98,68.543,110.66,68.394,110.338,68.249"/>
	<path d="M96.67,98.734c-0.24,0.233-0.481,0.463-0.726,0.691c8.772,8.18,20.545,13.186,33.486,13.186
		c3.152,0,6.234-0.297,9.221-0.864c-0.002-0.339-0.008-0.677-0.018-1.015c-2.979,0.577-6.056,0.879-9.203,0.879
		C116.773,111.611,105.261,106.725,96.67,98.734"/>
	<path d="M81.339,64.88c-0.333,0.064-0.664,0.132-0.995,0.203c0.418,13.191,6.038,25.069,14.875,33.651
		c0.244-0.227,0.486-0.457,0.726-0.689c-0.179-0.174-0.357-0.349-0.534-0.525C87.006,89.114,81.698,77.619,81.339,64.88"/>
	<path d="M95.945,98.045c-0.24,0.232-0.481,0.462-0.726,0.689c0.24,0.233,0.481,0.463,0.726,0.691
		c0.245-0.228,0.486-0.458,0.726-0.691C96.426,98.507,96.185,98.278,95.945,98.045"/>
	<path d="M139.65,111.546c-0.332,0.07-0.664,0.137-0.998,0.201c0.001,0.121,0.001,0.243,0.001,0.364h0.5h0.5l0,0
		C139.653,111.922,139.652,111.735,139.65,111.546 M41.603,107.976c-0.114,1.363-0.172,2.744-0.172,4.136
		c0,27.124,21.988,49.111,49.111,49.111c27.124,0,49.111-21.987,49.111-49.111h-0.5h-0.5c0,13.288-5.384,25.312-14.091,34.02
		c-8.708,8.707-20.732,14.091-34.02,14.091c-13.287,0-25.312-5.384-34.02-14.091c-8.707-8.708-14.091-20.732-14.091-34.02
		c0-1.243,0.047-2.474,0.14-3.694C42.247,108.274,41.923,108.126,41.603,107.976"/>
	<path d="M80.323,64.065c-20.567,4.354-36.384,21.58-38.621,42.851c0.318,0.152,0.638,0.301,0.96,0.447
		c1.116-11.391,6.203-21.614,13.86-29.271c6.415-6.414,14.629-11.025,23.822-13.009C80.334,64.745,80.327,64.405,80.323,64.065"/>
	<path d="M41.703,106.917c-0.037,0.353-0.07,0.704-0.1,1.059c0.32,0.151,0.644,0.298,0.968,0.442
		c0.027-0.352,0.057-0.704,0.092-1.054C42.341,107.218,42.021,107.069,41.703,106.917"/>
	<path d="M111.398,67.636c-0.029,0.355-0.062,0.707-0.1,1.059c4.948,2.37,9.427,5.561,13.264,9.396
		c8.405,8.406,13.713,19.902,14.072,32.641c0.333-0.065,0.664-0.132,0.995-0.204C139.026,91.538,127.645,75.267,111.398,67.636"/>
	<path d="M90.542,63c-3.152,0-6.234,0.297-9.221,0.864c0.002,0.339,0.008,0.677,0.018,1.015C84.317,64.303,87.395,64,90.542,64
		c7.057,0,13.759,1.52,19.796,4.248c0.034-0.35,0.065-0.702,0.092-1.054C104.351,64.499,97.621,63,90.542,63"/>
	<path d="M110.43,67.194c-0.027,0.352-0.058,0.704-0.092,1.054c0.322,0.146,0.642,0.294,0.96,0.447
		c0.037-0.353,0.07-0.704,0.1-1.059C111.078,67.486,110.754,67.338,110.43,67.194"/>
	<path d="M139.628,110.529c-0.331,0.071-0.662,0.139-0.995,0.204c0.01,0.337,0.016,0.675,0.018,1.015
		c0.334-0.063,0.667-0.13,0.998-0.201C139.646,111.207,139.639,110.867,139.628,110.529"/>
	<path d="M81.321,63.865c-0.334,0.063-0.667,0.13-0.998,0.201c0.003,0.34,0.011,0.679,0.021,1.018
		c0.331-0.071,0.662-0.139,0.995-0.203C81.33,64.542,81.324,64.204,81.321,63.865"/>
	<polygon points="181.403,161.667 181.403,167.167 175.903,167.167 175.903,168.167 182.403,168.167 182.403,161.667 	"/>
	<path d="M67.54,167.167H55.499v1H67.54V167.167z M91.621,167.167H79.58v1h12.041V167.167z M115.701,167.167h-12.041v1h12.041
		V167.167z M139.782,167.167h-12.041v1h12.041V167.167z M163.863,167.167h-12.041v1h12.041V167.167z"/>
	<polygon points="43.459,167.167 37.959,167.167 37.959,161.667 36.959,161.667 36.959,168.167 43.459,168.167 	"/>
	<path d="M37.959,40.197V29.154h-1v11.043H37.959z M37.959,62.282V51.239h-1v11.043H37.959z M37.959,84.368V73.325h-1v11.043H37.959
		z M37.959,106.453V95.41h-1v11.043H37.959z M37.959,128.539v-11.043h-1v11.043H37.959z M37.959,150.624v-11.043h-1v11.043H37.959z"
		/>
	<polygon points="37.959,18.111 37.959,12.611 43.459,12.611 43.459,11.611 36.959,11.611 36.959,18.111 	"/>
	<path d="M151.823,12.611h12.041v-1h-12.041V12.611z M127.742,12.611h12.041v-1h-12.041V12.611z M103.661,12.611h12.041v-1h-12.041
		V12.611z M79.58,12.611h12.041v-1H79.58V12.611z M55.5,12.611H67.54v-1H55.5V12.611z"/>
	<polygon points="175.903,12.611 181.403,12.611 181.403,18.111 182.403,18.111 182.403,11.611 175.903,11.611 	"/>
	<path d="M181.403,139.582v11.043h1v-11.043H181.403z M181.403,117.496v11.043h1v-11.043H181.403z M181.403,95.411v11.043h1V95.411
		H181.403z M181.403,73.325v11.043h1V73.325H181.403z M181.403,51.24v11.043h1V51.24H181.403z M181.403,29.154v11.043h1V29.154
		H181.403z"/>
	<path fill="#FFFF00" d="M256.236,15.389c-13.287,0-25.312,5.384-34.02,14.091c-8.707,8.708-14.091,20.732-14.091,34.02
		c0,13.288,5.384,25.312,14.091,34.02c3.836,3.836,8.315,7.026,13.264,9.396c2.237-21.271,18.053-38.498,38.62-42.851
		c-0.002-0.188-0.003-0.377-0.003-0.565c0-13.821,5.71-26.31,14.899-35.234C280.407,20.275,268.895,15.39,256.236,15.389"/>
	<path d="M256.236,14.389c-27.123,0-49.11,21.988-49.111,49.111c0,19.667,11.559,36.634,28.255,44.476
		c0.029-0.355,0.062-0.707,0.1-1.059c-4.948-2.37-9.427-5.561-13.264-9.396c-8.707-8.708-14.091-20.732-14.091-34.02
		c0-13.287,5.384-25.312,14.091-34.02c8.708-8.707,20.732-14.091,34.02-14.091c12.658,0,24.17,4.886,32.761,12.877
		c0.24-0.233,0.481-0.462,0.726-0.69C280.95,19.396,269.178,14.389,256.236,14.389"/>
	<path fill="#FF03FF" d="M323.208,15.389c-12.657,0-24.169,4.886-32.759,12.877c9.189,8.924,14.899,21.413,14.899,35.234l0,0l0,0
		c0,1.392-0.058,2.773-0.172,4.136c16.247,7.631,27.628,23.901,28.23,42.893c9.193-1.984,17.407-6.595,23.822-13.009
		c8.707-8.708,14.091-20.733,14.091-34.02h0.5l0,0h-0.5c0-13.287-5.384-25.312-14.091-34.02
		C348.52,20.773,336.495,15.39,323.208,15.389"/>
	<path fill="#FF03FF" d="M289.723,28.956c-0.179,0.173-0.357,0.349-0.533,0.525c-8.708,8.708-14.092,20.732-14.092,34.02
		c0,0.122,0,0.243,0.001,0.365c2.987-0.567,6.069-0.864,9.221-0.864c7.079,0,13.809,1.498,19.888,4.194
		c0.092-1.219,0.14-2.451,0.14-3.694h0.5l0,0h-0.5c0-13.287-5.384-25.312-14.091-34.02C290.08,29.304,289.902,29.129,289.723,28.956
		"/>
	<path fill="#FF03FF" d="M305.348,63.5h-0.5h-0.5c0,1.243-0.047,2.475-0.14,3.694c0.324,0.144,0.647,0.292,0.968,0.442
		C305.29,66.273,305.348,64.892,305.348,63.5 M305.348,63.5L305.348,63.5L305.348,63.5 M290.449,28.266
		c-0.245,0.228-0.486,0.457-0.726,0.689c0.179,0.173,0.357,0.349,0.534,0.525c8.707,8.708,14.091,20.732,14.091,34.02h0.5h0.5l0,0
		C305.348,49.679,299.638,37.19,290.449,28.266"/>
	<path d="M323.208,14.389c-12.94,0-24.713,5.006-33.485,13.187c0.245,0.228,0.486,0.458,0.726,0.69
		c8.59-7.991,20.102-12.876,32.759-12.877c13.287,0,25.312,5.384,34.02,14.091c8.707,8.708,14.091,20.732,14.091,34.02h0.5h0.5l0,0
		C372.318,36.377,350.332,14.39,323.208,14.389"/>
	<path d="M288.997,28.266c-9.189,8.924-14.899,21.413-14.899,35.234c0,0.188,0.001,0.377,0.003,0.565
		c0.332-0.07,0.665-0.137,0.999-0.201c-0.001-0.122-0.001-0.243-0.001-0.365c0-13.287,5.384-25.312,14.092-34.02
		c0.176-0.176,0.354-0.352,0.533-0.525C289.483,28.723,289.241,28.494,288.997,28.266"/>
	<path d="M289.723,27.576c-0.245,0.228-0.486,0.458-0.726,0.69c0.244,0.228,0.486,0.457,0.726,0.689
		c0.24-0.232,0.481-0.462,0.726-0.689C290.208,28.033,289.967,27.804,289.723,27.576"/>
	<path d="M372.319,63.5h-0.5h-0.5c0,13.287-5.384,25.312-14.091,34.02c-6.415,6.414-14.629,11.025-23.822,13.009
		c0.011,0.338,0.018,0.678,0.021,1.018C355.646,106.843,372.318,87.119,372.319,63.5"/>
	<path fill="#00FFFF" d="M289.723,99.425c-8.772,8.18-20.545,13.186-33.486,13.186c-7.079,0-13.808-1.498-19.888-4.194
		c-0.092,1.22-0.14,2.451-0.14,3.694c0,13.288,5.384,25.312,14.091,34.02c8.708,8.707,20.733,14.091,34.02,14.091
		c13.287,0,25.312-5.384,34.02-14.091c8.707-8.708,14.091-20.732,14.091-34.02h0.5l0,0h-0.5c0-0.122,0-0.243-0.001-0.364
		c-2.987,0.567-6.069,0.864-9.221,0.864C310.268,112.611,298.495,107.605,289.723,99.425"/>
	<path fill="#00FFFF" d="M274.123,65.083c-9.193,1.984-17.408,6.595-23.822,13.009c-7.657,7.658-12.744,17.881-13.86,29.271
		c6.037,2.729,12.739,4.248,19.796,4.248c12.658,0,24.17-4.886,32.761-12.877C280.16,90.152,274.541,78.274,274.123,65.083"/>
	<path fill="#00FFFF" d="M288.997,98.734c-8.59,7.991-20.103,12.877-32.761,12.877c-7.057,0-13.759-1.52-19.796-4.248
		c-0.034,0.35-0.065,0.702-0.092,1.054c6.08,2.696,12.809,4.194,19.888,4.194c12.941,0,24.714-5.006,33.486-13.186
		C289.478,99.197,289.237,98.967,288.997,98.734"/>
	<path fill="#0003FF" d="M305.076,68.696c-1.235,11.74-6.605,22.247-14.628,30.039c8.591,7.991,20.103,12.877,32.76,12.877
		c3.147,0,6.225-0.302,9.203-0.879c-0.359-12.738-5.667-24.234-14.072-32.64C314.503,74.256,310.023,71.065,305.076,68.696"/>
	<path fill="#0003FF" d="M284.32,64c-3.147,0-6.224,0.302-9.203,0.879c0.359,12.739,5.667,24.235,14.072,32.641
		c0.176,0.176,0.354,0.352,0.533,0.525c0.179-0.174,0.357-0.349,0.534-0.525c7.657-7.658,12.744-17.88,13.86-29.271
		C298.079,65.52,291.378,64,284.32,64"/>
	<path fill="#0003FF" d="M304.116,68.249C303,79.64,297.914,89.862,290.256,97.52c-0.176,0.176-0.354,0.352-0.534,0.525
		c0.24,0.232,0.481,0.462,0.726,0.689c8.023-7.792,13.393-18.299,14.628-30.039C304.758,68.543,304.438,68.395,304.116,68.249"/>
	<path d="M290.448,98.734c-0.24,0.233-0.481,0.462-0.726,0.691c8.772,8.18,20.545,13.186,33.485,13.186
		c3.152,0,6.234-0.297,9.221-0.864c-0.002-0.339-0.008-0.677-0.018-1.015c-2.979,0.577-6.056,0.879-9.203,0.879
		C310.551,111.611,299.039,106.725,290.448,98.734"/>
	<path d="M275.117,64.879c-0.333,0.065-0.664,0.132-0.995,0.204c0.418,13.191,6.038,25.069,14.875,33.651
		c0.244-0.227,0.486-0.457,0.726-0.689c-0.179-0.174-0.357-0.349-0.533-0.525C280.785,89.114,275.476,77.619,275.117,64.879"/>
	<path d="M289.723,98.045c-0.239,0.232-0.481,0.462-0.726,0.689c0.24,0.233,0.481,0.462,0.726,0.691
		c0.245-0.229,0.486-0.458,0.726-0.691C290.204,98.507,289.962,98.277,289.723,98.045"/>
	<path d="M235.381,107.976c-0.114,1.363-0.172,2.744-0.172,4.136c0,27.124,21.988,49.111,49.111,49.111
		c27.124,0,49.11-21.987,49.111-49.111h-0.5h-0.5c0,13.288-5.384,25.312-14.091,34.02c-8.708,8.707-20.732,14.091-34.02,14.091
		c-13.287,0-25.312-5.384-34.02-14.091c-8.707-8.708-14.091-20.732-14.091-34.02c0-1.243,0.047-2.474,0.14-3.694
		C236.024,108.274,235.701,108.126,235.381,107.976"/>
	<path d="M274.101,64.065c-20.567,4.354-36.383,21.58-38.62,42.851c0.318,0.152,0.638,0.301,0.96,0.447
		c1.116-11.391,6.203-21.614,13.86-29.271c6.415-6.414,14.629-11.025,23.822-13.009C274.112,64.745,274.104,64.405,274.101,64.065"
		/>
	<path d="M235.48,106.917c-0.037,0.353-0.07,0.704-0.1,1.059c0.32,0.151,0.644,0.298,0.968,0.442
		c0.027-0.352,0.058-0.704,0.092-1.054C236.119,107.218,235.799,107.069,235.48,106.917"/>
	<path d="M333.427,111.546c-0.332,0.07-0.664,0.137-0.998,0.201c0.001,0.121,0.001,0.243,0.001,0.364h0.5h0.5l0,0
		C333.431,111.922,333.43,111.735,333.427,111.546"/>
	<path d="M305.176,67.636c-0.029,0.355-0.062,0.707-0.1,1.06c4.947,2.37,9.427,5.561,13.263,9.396
		c8.405,8.406,13.713,19.902,14.072,32.64c0.333-0.064,0.664-0.132,0.995-0.203C332.804,91.538,321.422,75.267,305.176,67.636"/>
	<path d="M284.32,63c-3.152,0-6.234,0.297-9.221,0.864c0.002,0.339,0.008,0.677,0.018,1.015c2.979-0.577,6.055-0.879,9.203-0.879
		c7.058,0,13.759,1.519,19.796,4.249c0.034-0.351,0.065-0.702,0.092-1.055C298.128,64.499,291.399,63,284.32,63"/>
	<path d="M304.208,67.194c-0.027,0.353-0.058,0.704-0.092,1.055c0.322,0.146,0.642,0.294,0.96,0.447
		c0.037-0.353,0.07-0.705,0.1-1.06C304.855,67.486,304.532,67.338,304.208,67.194"/>
	<path d="M275.099,63.865c-0.334,0.063-0.667,0.13-0.999,0.201c0.004,0.34,0.011,0.679,0.022,1.018
		c0.331-0.071,0.662-0.139,0.995-0.204C275.107,64.542,275.102,64.204,275.099,63.865"/>
	<path d="M333.406,110.529c-0.331,0.071-0.662,0.139-0.995,0.203c0.01,0.338,0.016,0.676,0.018,1.015
		c0.334-0.063,0.667-0.13,0.998-0.201C333.424,111.207,333.417,110.867,333.406,110.529"/>
	<polygon points="375.18,161.667 375.18,167.167 369.68,167.167 369.68,168.167 376.18,168.167 376.18,161.667 	"/>
	<path d="M261.318,167.167h-12.041v1h12.041V167.167z M285.399,167.167h-12.041v1h12.041V167.167z M309.479,167.167h-12.041v1
		h12.041V167.167z M333.561,167.167H321.52v1h12.041V167.167z M357.641,167.167h-12.041v1h12.041V167.167z"/>
	<polygon points="237.237,167.167 231.737,167.167 231.737,161.667 230.737,161.667 230.737,168.167 237.237,168.167 	"/>
	<path d="M231.737,40.197V29.154h-1v11.043H231.737z M231.737,62.282V51.239h-1v11.043H231.737z M231.737,84.368V73.325h-1v11.043
		H231.737z M231.737,106.453V95.41h-1v11.043H231.737z M231.737,128.539v-11.043h-1v11.043H231.737z M231.737,150.624v-11.043h-1
		v11.043H231.737z"/>
	<polygon points="231.737,18.111 231.737,12.611 237.237,12.611 237.237,11.611 230.737,11.611 230.737,18.111 	"/>
	<path d="M345.601,12.611h12.04v-1h-12.04V12.611z M321.52,12.611h12.041v-1H321.52V12.611z M297.439,12.611h12.041v-1h-12.041
		V12.611z M273.358,12.611h12.041v-1h-12.041V12.611z M249.277,12.611h12.041v-1h-12.041V12.611z"/>
	<polygon points="369.68,12.611 375.18,12.611 375.18,18.111 376.18,18.111 376.18,11.611 369.68,11.611 	"/>
	<path d="M375.18,139.582v11.043h1v-11.043H375.18z M375.18,117.496v11.043h1v-11.043H375.18z M375.18,95.411v11.043h1V95.411
		H375.18z M375.18,73.325v11.043h1V73.325H375.18z M375.18,51.24v11.043h1V51.24H375.18z M375.18,29.154v11.043h1V29.154H375.18z"/>
	<path fill="#FFFF00" d="M460.375,15.389c-13.287,0-25.312,5.384-34.021,14.091c-8.707,8.708-14.091,20.732-14.091,34.02
		c0,13.288,5.384,25.312,14.091,34.02c3.837,3.836,8.316,7.027,13.265,9.396c2.236-21.271,18.053-38.498,38.62-42.851
		c-0.002-0.188-0.003-0.377-0.003-0.565c0-13.821,5.71-26.31,14.899-35.234C484.545,20.275,473.033,15.39,460.375,15.389"/>
	<path d="M460.375,14.389c-27.124,0-49.111,21.988-49.111,49.111c0,19.667,11.56,36.634,28.256,44.476
		c0.029-0.355,0.062-0.707,0.1-1.06c-4.948-2.37-9.428-5.561-13.265-9.396c-8.707-8.708-14.091-20.732-14.091-34.02
		c0-13.287,5.384-25.312,14.091-34.02c8.708-8.707,20.733-14.091,34.021-14.091c12.658,0,24.17,4.886,32.761,12.877
		c0.239-0.233,0.48-0.463,0.726-0.691C485.089,19.395,473.316,14.389,460.375,14.389"/>
	<path fill="#FF03FF" d="M527.346,15.389c-12.657,0-24.169,4.886-32.759,12.877c9.189,8.924,14.899,21.413,14.899,35.234l0,0l0,0
		c0,1.394-0.058,2.772-0.172,4.137c16.244,7.632,27.627,23.902,28.229,42.892c9.193-1.984,17.408-6.595,23.822-13.009
		c8.707-8.708,14.092-20.733,14.092-34.02h0.5l0,0h-0.5c0-13.287-5.385-25.312-14.092-34.02
		C552.657,20.773,540.633,15.39,527.346,15.389"/>
	<path fill="#FF0300" d="M493.861,28.955c-0.18,0.174-0.357,0.349-0.534,0.525c-8.707,8.708-14.091,20.732-14.091,34.02
		c0,0.122,0.001,0.244,0.001,0.365c2.987-0.567,6.069-0.864,9.222-0.864c7.078,0,13.809,1.498,19.888,4.194
		c0.093-1.219,0.14-2.451,0.14-3.694h0.5l0,0h-0.5c0-13.287-5.384-25.312-14.092-34.02C494.219,29.304,494.04,29.129,493.861,28.955
		"/>
	<path d="M509.486,63.5h-0.5h-0.5c0,1.243-0.047,2.475-0.14,3.694c0.325,0.145,0.646,0.291,0.968,0.442
		C509.429,66.272,509.486,64.894,509.486,63.5 M509.486,63.5L509.486,63.5L509.486,63.5 M494.587,28.266
		c-0.244,0.227-0.486,0.457-0.726,0.689c0.179,0.174,0.357,0.349,0.533,0.525c8.708,8.708,14.092,20.732,14.092,34.02h0.5h0.5l0,0
		C509.486,49.679,503.776,37.19,494.587,28.266"/>
	<path d="M527.346,14.389c-12.94,0-24.712,5.006-33.484,13.186c0.244,0.228,0.485,0.458,0.726,0.691
		c8.59-7.991,20.102-12.876,32.759-12.877c13.287,0,25.312,5.384,34.02,14.091c8.707,8.708,14.092,20.732,14.092,34.02h0.5h0.5l0,0
		C576.457,36.377,554.47,14.39,527.346,14.389"/>
	<path d="M493.136,28.266c-9.189,8.924-14.899,21.413-14.899,35.234c0,0.188,0.001,0.377,0.003,0.565
		c0.332-0.07,0.664-0.137,0.998-0.201c0-0.121-0.001-0.243-0.001-0.365c0-13.287,5.384-25.312,14.091-34.02
		c0.177-0.176,0.354-0.352,0.534-0.525C493.621,28.723,493.38,28.493,493.136,28.266"/>
	<path d="M493.861,27.575c-0.245,0.228-0.486,0.458-0.726,0.691c0.244,0.227,0.485,0.457,0.726,0.689
		c0.239-0.232,0.481-0.462,0.726-0.689C494.347,28.033,494.105,27.803,493.861,27.575"/>
	<path d="M576.457,63.5h-0.5h-0.5c0,13.287-5.385,25.312-14.092,34.02c-6.414,6.414-14.629,11.025-23.822,13.009
		c0.011,0.338,0.019,0.678,0.022,1.018C559.783,106.844,576.457,87.119,576.457,63.5 M576.457,63.5L576.457,63.5L576.457,63.5"/>
	<path fill="#00FFFF" d="M509.215,68.696c-2.596,24.682-23.471,43.915-48.84,43.916c-7.079,0-13.808-1.498-19.888-4.193
		c-0.093,1.219-0.14,2.451-0.14,3.693c0,13.288,5.384,25.312,14.092,34.02c8.708,8.707,20.732,14.091,34.02,14.091
		c13.286,0,25.311-5.384,34.019-14.091c8.706-8.708,14.091-20.732,14.091-34.02h0.5l0,0h-0.5c0-13.287-5.385-25.312-14.091-34.02
		C518.642,74.256,514.162,71.065,509.215,68.696"/>
	<path fill="#00FF00" d="M488.459,64c-13.287,0-25.312,5.384-34.02,14.091c-7.657,7.658-12.745,17.881-13.86,29.271
		c6.037,2.729,12.738,4.248,19.796,4.248c13.287,0,25.312-5.384,34.02-14.091c7.657-7.658,12.744-17.88,13.86-29.271
		C502.218,65.52,495.517,64,488.459,64"/>
	<path d="M508.255,68.249c-1.116,11.391-6.203,21.613-13.86,29.271c-8.708,8.707-20.732,14.091-34.02,14.091
		c-7.058,0-13.759-1.519-19.796-4.248c-0.034,0.351-0.065,0.702-0.092,1.055c6.08,2.696,12.809,4.193,19.888,4.193
		c25.369,0,46.244-19.234,48.84-43.916C508.896,68.543,508.577,68.395,508.255,68.249"/>
	<path d="M439.52,107.976c-0.114,1.363-0.172,2.743-0.172,4.135c0,27.124,21.987,49.111,49.111,49.111
		c27.122,0,49.109-21.987,49.109-49.111h-0.5h-0.5c0,13.288-5.385,25.312-14.091,34.02c-8.708,8.707-20.732,14.091-34.019,14.091
		c-13.287,0-25.312-5.384-34.02-14.091c-8.708-8.708-14.092-20.732-14.092-34.02c0-1.243,0.047-2.475,0.14-3.693
		C440.163,108.274,439.84,108.126,439.52,107.976"/>
	<path d="M439.619,106.917c-0.037,0.353-0.07,0.705-0.1,1.06c0.32,0.15,0.644,0.298,0.968,0.442
		c0.026-0.353,0.058-0.704,0.092-1.055C440.257,107.218,439.938,107.069,439.619,106.917"/>
	<path d="M509.314,67.637c-0.029,0.353-0.062,0.708-0.1,1.059c4.947,2.37,9.427,5.561,13.263,9.396
		c8.706,8.708,14.091,20.732,14.091,34.02h0.5h0.5l0,0c0-0.189-0.001-0.376-0.003-0.565c-0.004-0.34-0.012-0.679-0.022-1.018
		C536.941,91.539,525.559,75.269,509.314,67.637"/>
	<path d="M488.459,63c-3.152,0-6.234,0.297-9.222,0.864c-0.334,0.063-0.666,0.13-0.998,0.201
		c-20.567,4.354-36.384,21.58-38.62,42.851c0.318,0.152,0.638,0.301,0.96,0.447c1.115-11.39,6.203-21.614,13.86-29.271
		c8.708-8.707,20.732-14.091,34.02-14.091c7.058,0,13.759,1.519,19.796,4.249c0.034-0.35,0.064-0.702,0.092-1.055
		C502.268,64.499,495.537,63,488.459,63"/>
	<path d="M508.347,67.194c-0.027,0.353-0.058,0.705-0.092,1.055c0.322,0.146,0.642,0.294,0.96,0.447
		c0.037-0.351,0.07-0.706,0.1-1.059C508.993,67.485,508.672,67.339,508.347,67.194"/>
	<polygon points="579.318,161.667 579.318,167.167 573.818,167.167 573.818,168.167 580.318,168.167 580.318,161.667 	"/>
	<path d="M465.456,167.167h-12.04v1h12.04V167.167z M489.537,167.167h-12.041v1h12.041V167.167z M513.617,167.167h-12.04v1h12.04
		V167.167z M537.698,167.167h-12.04v1h12.04V167.167z M561.779,167.167h-12.04v1h12.04V167.167z"/>
	<polygon points="441.375,167.167 435.875,167.167 435.875,161.667 434.875,161.667 434.875,168.167 441.375,168.167 	"/>
	<path d="M435.875,40.197V29.154h-1v11.043H435.875z M435.875,62.282V51.239h-1v11.043H435.875z M435.875,84.368V73.325h-1v11.043
		H435.875z M435.875,106.453V95.41h-1v11.043H435.875z M435.875,128.539v-11.043h-1v11.043H435.875z M435.875,150.624v-11.043h-1
		v11.043H435.875z"/>
	<polygon points="435.875,18.111 435.875,12.611 441.375,12.611 441.375,11.611 434.875,11.611 434.875,18.111 	"/>
	<path d="M549.739,12.611h12.04v-1h-12.04V12.611z M525.658,12.611h12.041v-1h-12.041V12.611z M501.577,12.611h12.041v-1h-12.041
		V12.611z M477.497,12.611h12.04v-1h-12.04V12.611z M453.416,12.611h12.04v-1h-12.04V12.611z"/>
	<polygon points="573.818,12.611 579.318,12.611 579.318,18.111 580.318,18.111 580.318,11.611 573.818,11.611 	"/>
	<path d="M579.318,139.582v11.043h1v-11.043H579.318z M579.318,117.496v11.043h1v-11.043H579.318z M579.318,95.411v11.043h1V95.411
		H579.318z M579.318,73.325v11.043h1V73.325H579.318z M579.318,51.24v11.043h1V51.24H579.318z M579.318,29.154v11.043h1V29.154
		H579.318z"/>
	<g>
		<path d="M72.398,177.759c0.636-0.108,1.392-0.18,2.219-0.18c1.5,0,2.567,0.36,3.274,1.007c0.731,0.66,1.151,1.595,1.151,2.902
			c0,1.319-0.42,2.399-1.163,3.143c-0.768,0.755-2.015,1.163-3.586,1.163c-0.756,0-1.367-0.036-1.896-0.096V177.759z
			 M73.442,184.907c0.264,0.036,0.647,0.048,1.056,0.048c2.242,0,3.441-1.248,3.441-3.43c0.013-1.907-1.067-3.118-3.273-3.118
			c-0.54,0-0.948,0.048-1.224,0.108V184.907z"/>
		<path d="M80.978,183.012c0.024,1.427,0.924,2.015,1.991,2.015c0.756,0,1.224-0.132,1.607-0.3l0.191,0.756
			c-0.372,0.168-1.02,0.372-1.942,0.372c-1.787,0-2.854-1.187-2.854-2.938c0-1.751,1.031-3.118,2.723-3.118
			c1.906,0,2.398,1.655,2.398,2.723c0,0.216-0.013,0.372-0.036,0.492H80.978z M84.072,182.256c0.012-0.659-0.276-1.703-1.463-1.703
			c-1.08,0-1.535,0.971-1.619,1.703H84.072z"/>
		<path d="M86.511,185.722v-5.001h-0.804v-0.803h0.804v-0.276c0-0.815,0.192-1.559,0.672-2.027c0.396-0.384,0.923-0.54,1.415-0.54
			c0.384,0,0.695,0.084,0.899,0.168l-0.144,0.816c-0.156-0.072-0.36-0.132-0.672-0.132c-0.899,0-1.127,0.78-1.127,1.679v0.312h1.402
			v0.803h-1.402v5.001H86.511z"/>
		<path d="M93.984,184.331c0,0.503,0.024,0.995,0.084,1.391h-0.947l-0.084-0.731h-0.036c-0.324,0.456-0.947,0.863-1.775,0.863
			c-1.175,0-1.774-0.828-1.774-1.667c0-1.403,1.247-2.171,3.49-2.159v-0.12c0-0.468-0.132-1.343-1.319-1.331
			c-0.552,0-1.115,0.156-1.523,0.432l-0.24-0.708c0.48-0.3,1.188-0.504,1.919-0.504c1.775,0,2.207,1.211,2.207,2.363V184.331z
			 M92.965,182.76c-1.151-0.024-2.458,0.18-2.458,1.307c0,0.696,0.455,1.008,0.983,1.008c0.768,0,1.259-0.48,1.427-0.972
			c0.036-0.12,0.048-0.24,0.048-0.336V182.76z"/>
		<path d="M100.547,184.127c0,0.612,0.013,1.14,0.049,1.595H99.66l-0.061-0.947h-0.023c-0.265,0.467-0.888,1.079-1.919,1.079
			c-0.912,0-2.003-0.516-2.003-2.542v-3.394h1.055v3.202c0,1.104,0.349,1.859,1.296,1.859c0.707,0,1.199-0.492,1.391-0.971
			c0.061-0.144,0.097-0.336,0.097-0.54v-3.55h1.055V184.127z"/>
		<path d="M102.303,177.207h1.055v8.515h-1.055V177.207z"/>
		<path d="M106.405,178.526v1.391h1.512v0.803h-1.512v3.13c0,0.72,0.204,1.127,0.792,1.127c0.288,0,0.456-0.024,0.611-0.072
			l0.048,0.803c-0.203,0.072-0.527,0.144-0.936,0.144c-0.491,0-0.887-0.168-1.139-0.444c-0.288-0.324-0.408-0.839-0.408-1.523
			v-3.167h-0.899v-0.803h0.899v-1.08L106.405,178.526z"/>
	</g>
	<g>
		<path d="M476.731,181.833h1.044v3.898h0.036c0.216-0.312,0.432-0.6,0.636-0.864l2.471-3.034h1.295l-2.927,3.43l3.154,4.653h-1.235
			l-2.65-3.97l-0.779,0.887v3.083h-1.044V181.833z"/>
		<path d="M483.32,185.683c0-0.611-0.013-1.091-0.049-1.571h0.936l0.061,0.959h0.023c0.288-0.54,0.96-1.08,1.919-1.08
			c0.804,0,2.051,0.48,2.051,2.471v3.454h-1.055v-3.346c0-0.936-0.349-1.715-1.344-1.715c-0.684,0-1.224,0.492-1.415,1.079
			c-0.048,0.132-0.072,0.312-0.072,0.492v3.49h-1.055V185.683z"/>
		<path d="M495.233,186.966c0,2.146-1.499,3.082-2.891,3.082c-1.56,0-2.782-1.151-2.782-2.986c0-1.931,1.283-3.07,2.878-3.07
			C494.105,183.992,495.233,185.203,495.233,186.966z M490.64,187.026c0,1.271,0.72,2.231,1.751,2.231
			c1.008,0,1.763-0.947,1.763-2.255c0-0.983-0.491-2.219-1.738-2.219C491.18,184.783,490.64,185.935,490.64,187.026z"/>
		<path d="M500.706,189.712c-0.276,0.132-0.888,0.336-1.668,0.336c-1.751,0-2.89-1.187-2.89-2.962c0-1.787,1.223-3.094,3.118-3.094
			c0.623,0,1.175,0.156,1.463,0.312l-0.239,0.803c-0.252-0.132-0.648-0.276-1.224-0.276c-1.331,0-2.051,0.996-2.051,2.195
			c0,1.343,0.863,2.171,2.015,2.171c0.6,0,0.995-0.144,1.295-0.276L500.706,189.712z"/>
		<path d="M502.987,186.774h0.024c0.144-0.204,0.335-0.456,0.503-0.66l1.716-2.003h1.259l-2.23,2.387l2.555,3.418h-1.296
			l-1.99-2.783l-0.54,0.6v2.183h-1.043v-8.515h1.043V186.774z"/>
		<path d="M512.825,186.966c0,2.146-1.499,3.082-2.891,3.082c-1.56,0-2.782-1.151-2.782-2.986c0-1.931,1.283-3.07,2.878-3.07
			C511.697,183.992,512.825,185.203,512.825,186.966z M508.231,187.026c0,1.271,0.72,2.231,1.751,2.231
			c1.008,0,1.763-0.947,1.763-2.255c0-0.983-0.491-2.219-1.738-2.219C508.771,184.783,508.231,185.935,508.231,187.026z"/>
		<path d="M519.017,188.321c0,0.612,0.013,1.14,0.049,1.595h-0.936l-0.061-0.947h-0.023c-0.265,0.467-0.888,1.079-1.919,1.079
			c-0.912,0-2.003-0.516-2.003-2.542v-3.394h1.055v3.202c0,1.104,0.349,1.859,1.296,1.859c0.707,0,1.199-0.492,1.391-0.971
			c0.061-0.144,0.097-0.336,0.097-0.54v-3.55h1.055V188.321z"/>
		<path d="M522.042,182.721v1.391h1.512v0.803h-1.512v3.13c0,0.72,0.204,1.127,0.792,1.127c0.288,0,0.456-0.024,0.611-0.072
			l0.048,0.803c-0.203,0.072-0.527,0.144-0.936,0.144c-0.491,0-0.887-0.168-1.139-0.444c-0.288-0.324-0.408-0.839-0.408-1.523
			v-3.167h-0.899v-0.803h0.899v-1.08L522.042,182.721z"/>
	</g>
	<g>
		<path d="M276.553,181.833v8.083h-1.056v-8.083H276.553z"/>
		<path d="M278.197,188.849c0.324,0.192,0.876,0.408,1.403,0.408c0.756,0,1.115-0.372,1.115-0.863c0-0.504-0.3-0.768-1.067-1.056
			c-1.056-0.384-1.547-0.947-1.547-1.643c0-0.936,0.768-1.703,2.003-1.703c0.588,0,1.104,0.156,1.415,0.36l-0.252,0.768
			c-0.228-0.144-0.647-0.348-1.188-0.348c-0.623,0-0.959,0.36-0.959,0.792c0,0.479,0.336,0.695,1.091,0.996
			c0.996,0.372,1.523,0.875,1.523,1.739c0,1.031-0.804,1.751-2.159,1.751c-0.635,0-1.223-0.168-1.631-0.408L278.197,188.849z"/>
		<path d="M288.347,186.966c0,2.146-1.499,3.082-2.891,3.082c-1.56,0-2.782-1.151-2.782-2.986c0-1.931,1.283-3.07,2.878-3.07
			C287.219,183.992,288.347,185.203,288.347,186.966z M283.753,187.026c0,1.271,0.72,2.231,1.751,2.231
			c1.008,0,1.763-0.947,1.763-2.255c0-0.983-0.491-2.219-1.738-2.219C284.293,184.783,283.753,185.935,283.753,187.026z"/>
		<path d="M289.682,181.401h1.055v8.515h-1.055V181.401z"/>
		<path d="M296.591,188.525c0,0.503,0.024,0.995,0.084,1.391h-0.947l-0.084-0.731h-0.036c-0.324,0.456-0.947,0.863-1.775,0.863
			c-1.175,0-1.774-0.828-1.774-1.667c0-1.403,1.247-2.171,3.49-2.159v-0.12c0-0.468-0.132-1.343-1.319-1.331
			c-0.552,0-1.115,0.156-1.523,0.432l-0.24-0.708c0.48-0.3,1.188-0.504,1.919-0.504c1.775,0,2.207,1.211,2.207,2.363V188.525z
			 M295.571,186.954c-1.151-0.024-2.458,0.18-2.458,1.307c0,0.696,0.455,1.008,0.983,1.008c0.768,0,1.259-0.48,1.427-0.972
			c0.036-0.12,0.048-0.24,0.048-0.336V186.954z"/>
		<path d="M299.532,182.721v1.391h1.512v0.803h-1.512v3.13c0,0.72,0.204,1.127,0.792,1.127c0.288,0,0.456-0.024,0.611-0.072
			l0.048,0.803c-0.203,0.072-0.527,0.144-0.936,0.144c-0.491,0-0.887-0.168-1.139-0.444c-0.288-0.324-0.408-0.839-0.408-1.523
			v-3.167h-0.899v-0.803h0.899v-1.08L299.532,182.721z"/>
		<path d="M302.76,187.206c0.024,1.427,0.924,2.015,1.991,2.015c0.756,0,1.224-0.132,1.607-0.3l0.191,0.756
			c-0.372,0.168-1.02,0.372-1.942,0.372c-1.787,0-2.854-1.187-2.854-2.938c0-1.751,1.031-3.118,2.723-3.118
			c1.906,0,2.398,1.655,2.398,2.723c0,0.216-0.013,0.372-0.036,0.492H302.76z M305.854,186.45c0.012-0.659-0.276-1.703-1.463-1.703
			c-1.08,0-1.535,0.971-1.619,1.703H305.854z"/>
		<path d="M313.187,181.401v7.016c0,0.516,0.023,1.103,0.048,1.499h-0.936l-0.048-1.007h-0.036
			c-0.312,0.647-1.008,1.139-1.955,1.139c-1.403,0-2.494-1.187-2.494-2.95c-0.013-1.931,1.199-3.106,2.603-3.106
			c0.899,0,1.487,0.42,1.751,0.875h0.023v-3.466H313.187z M312.143,186.475c0-0.132-0.012-0.312-0.048-0.444
			c-0.155-0.66-0.731-1.211-1.522-1.211c-1.092,0-1.739,0.959-1.739,2.231c0,1.175,0.587,2.146,1.715,2.146
			c0.708,0,1.355-0.479,1.547-1.259c0.036-0.144,0.048-0.288,0.048-0.456V186.475z"/>
	</g>
</g>
</svg>
